<svg width="40" height="40" viewBox="0 0 40 40" fill="none" xmlns="http://www.w3.org/2000/svg">
<g clip-path="url(#clip0)">
<path d="M38.648 7.87859L26.5282 19.9996L38.648 32.12C40.4507 33.9235 40.4507 36.8448 38.648 38.6483C37.7472 39.549 36.5663 39.9997 35.3859 39.9997C34.2036 39.9997 33.0226 39.5497 32.1225 38.6483L20.0001 26.5264L7.87858 38.6481C6.97795 39.5489 5.7969 39.9996 4.6155 39.9996C3.43444 39.9996 2.25419 39.5496 1.35276 38.6481C-0.450001 36.8455 -0.450001 33.924 1.35276 32.1199L13.4722 19.9995L1.35207 7.87859C-0.450689 6.07584 -0.450689 3.15381 1.35207 1.35106C3.15448 -0.450313 6.07479 -0.450313 7.87789 1.35106L20 13.4721L32.1211 1.35106C33.9246 -0.450313 36.8452 -0.450313 38.6473 1.35106C40.4507 3.15381 40.4507 6.07584 38.648 7.87859Z" fill="white"/>
</g>
<defs>
<clipPath id="clip0">
<rect width="40" height="40" fill="white"/>
</clipPath>
</defs>
</svg>
