<svg width="40" height="40" viewBox="0 0 40 40" fill="none" xmlns="http://www.w3.org/2000/svg">
<g clip-path="url(#clip0)">
<path d="M36.5624 3.01309L3.43738 3.01309C1.5389 3.01309 -0.00012207 4.55211 -0.00012207 6.45059C-0.00012207 8.34907 1.5389 9.88809 3.43738 9.88809L36.5624 9.88809C38.4609 9.88809 39.9999 8.34907 39.9999 6.45059C39.9999 4.55211 38.4609 3.01309 36.5624 3.01309Z" fill="#022840"/>
<path d="M36.5624 16.5618L3.43738 16.5618C1.5389 16.5618 -0.00012207 18.1008 -0.00012207 19.9993C-0.00012207 21.8978 1.5389 23.4368 3.43738 23.4368H36.5624C38.4609 23.4368 39.9999 21.8978 39.9999 19.9993C39.9999 18.1008 38.4609 16.5618 36.5624 16.5618Z" fill="#022840"/>
<path d="M36.5624 30.1118L3.43738 30.1118C1.5389 30.1118 -0.00012207 31.6509 -0.00012207 33.5493C-0.00012207 35.4478 1.5389 36.9868 3.43738 36.9868H36.5624C38.4609 36.9868 39.9999 35.4478 39.9999 33.5493C39.9999 31.6509 38.4609 30.1118 36.5624 30.1118Z" fill="#022840"/>
</g>
<defs>
<clipPath id="clip0">
<rect width="40" height="40" fill="white" transform="translate(-0.00012207)"/>
</clipPath>
</defs>
</svg>
